inDegrees=no
num_controls=7
num_derivatives=13
num_iterations=75
num_multipliers=7
num_parameters=0
num_slacks=7
num_states=26
objective=0.334230
objective_accelerations=0.035458
objective_balance=0.001197
objective_effort=0.026922
objective_height=0.268981
objective_ligament=0.001672
solver_duration=781.542382
status=Solve_Succeeded
success=true
DataType=double
version=3
OpenSimVersion=4.5
endheader
time	/jointset/ground_pelvis/pelvis_tilt/value	/jointset/ground_pelvis/pelvis_tx/value	/jointset/ground_pelvis/pelvis_ty/value	/jointset/hip_r/hip_flexion_r/value	/jointset/hip_r/hip_adduction_r/value	/jointset/hip_r/hip_rotation_r/value	/jointset/back/lumbar_extension/value	/jointset/patellofemoral_r/patellar_flexion_r/value	/jointset/knee_r/knee_flexion_r/value	/jointset/knee_r/knee_adduction_r/value	/jointset/knee_r/knee_rotation_r/value	/jointset/ankle_r/ankle_angle_r/value	/jointset/subtalar_r/subtalar_angle_r/value	/jointset/ground_pelvis/pelvis_tilt/speed	/jointset/ground_pelvis/pelvis_tx/speed	/jointset/ground_pelvis/pelvis_ty/speed	/jointset/hip_r/hip_flexion_r/speed	/jointset/hip_r/hip_adduction_r/speed	/jointset/hip_r/hip_rotation_r/speed	/jointset/back/lumbar_extension/speed	/jointset/patellofemoral_r/patellar_flexion_r/speed	/jointset/knee_r/knee_flexion_r/speed	/jointset/knee_r/knee_adduction_r/speed	/jointset/knee_r/knee_rotation_r/speed	/jointset/ankle_r/ankle_angle_r/speed	/jointset/subtalar_r/subtalar_angle_r/speed	/forceset/tau_hip_flexion_r	/forceset/tau_hip_adduction_r	/forceset/tau_hip_rotation_r	/forceset/tau_knee_flexion_r	/forceset/tau_ankle_angle_r	/forceset/tau_subtalar_angle_r	/forceset/tau_lumbar_extension	lambda_cid13_p0	lambda_cid14_p0	lambda_cid14_p1	lambda_cid14_p2	lambda_cid14_p3	lambda_cid14_p4	lambda_cid14_p5	/jointset/ground_pelvis/pelvis_tilt/accel	/jointset/ground_pelvis/pelvis_tx/accel	/jointset/ground_pelvis/pelvis_ty/accel	/jointset/hip_r/hip_flexion_r/accel	/jointset/hip_r/hip_adduction_r/accel	/jointset/hip_r/hip_rotation_r/accel	/jointset/back/lumbar_extension/accel	/jointset/patellofemoral_r/patellar_flexion_r/accel	/jointset/knee_r/knee_flexion_r/accel	/jointset/knee_r/knee_adduction_r/accel	/jointset/knee_r/knee_rotation_r/accel	/jointset/ankle_r/ankle_angle_r/accel	/jointset/subtalar_r/subtalar_angle_r/accel	gamma_cid13_p0	gamma_cid14_p0	gamma_cid14_p1	gamma_cid14_p2	gamma_cid14_p3	gamma_cid14_p4	gamma_cid14_p5
1.5	-0.1019409248624505	0.04204177160447071	0.8194446280163276	0.8087270431474611	-0.2429963366914806	-0.08217043775689584	-0.6238408213274457	0.9304997265775977	0.930499726577559	0.02835844163316293	0.1744565973178638	0.3036271896721585	0.110227796406631	0.5032000311096839	0.2153758505495418	0.4911029549348476	-2.012773690379156	0.008815757798228102	-0.3455358888064577	0.7995572977804696	-1.93358463471756	-1.933584634717368	0.3013471662548365	0.000337908693195816	-0.5225451911923781	-0.1718734293300813	-0.1677493357974653	0.01321639435954432	0.02902638034200469	-0.2873672955766041	-0.008801630512805603	-0.01504114323319668	0.2163825567856812	-9.331710214458338	-45.52587315660114	-13.68421353340425	1.667613228789614	-0.7857378593648002	-629.9177571611857	52.15684005406964	0.1021047640130223	0.5166422743325049	-0.4988481587635276	-0.9411646754423082	-0.04793481009220386	-0.3481201551138265	1.726866240150692	-1.339141602403375	-1.339141602403376	0.5548582449442877	-0.05646578927985789	-0.6280972617023867	-0.1372165614219836	2.060065543983051e-08	-1.535335894194429e-07	-2.790827430083053e-06	-1.517852007260603e-06	3.950265738563013e-07	1.043461781926766e-08	-1.710053368310448e-06
1.51	-0.09690426495909803	0.04422109810157381	0.82432971964002	0.7885544964338408	-0.2429106959373817	-0.08564673903718406	-0.6157605320810169	0.9110992479882024	0.9110992479881627	0.03139696103575205	0.1744597474894407	0.2983710426412355	0.1085024081297986	0.5040559843600111	0.2204587893639624	0.4858114283589626	-2.021459568895031	0.008304802178072314	-0.3496995439556969	0.8163710083414072	-1.946238073582667	-1.946238073582623	0.306355383698064	0.0002951360501959937	-0.528607153147771	-0.1731829576667763	-0.1601106149720627	0.01136782970162245	0.02862891717355047	-0.2840271570296781	-0.006419719676219759	-0.01549547110021294	0.2094723848736093	-10.35959748926947	-44.47077615776192	-13.55007611976214	1.478646768761847	-0.9495473620932623	-625.112166931871	52.20833699221827	0.06593029443339078	0.4995920793540949	-0.5599002669223501	-0.7909080567089321	-0.05420470324314872	-0.4467757768076762	1.639191989487007	-1.187494379535903	-1.187494379558368	0.4732542471302016	0.02190483081197325	-0.5836053230490188	-0.1251952617067494	9.603817889508505e-09	-1.540867606626696e-07	-2.554654950377038e-06	-1.526899270426265e-06	3.696664360274242e-07	-1.01248664600265e-08	-1.491635345061975e-06
1.52	-0.09186132758546742	0.04645034846569241	0.8291587769259694	0.7683033692116474	-0.2428304704925384	-0.08916393438535986	-0.6075159920238952	0.8915804251399623	0.8915804251399214	0.03448545276339727	0.1744624875011097	0.2930566040586404	0.1067644497112162	0.50445552516598	0.2253606239526415	0.4798960873862314	-2.02848979209286	0.007732695947282981	-0.3537147023840845	0.8324074599192212	-1.95725348648664	-1.957253486486747	0.3113416312660206	0.0002558767120772247	-0.5342035015268153	-0.1743874576800109	-0.1524718941466753	0.009519265043696778	0.02823145400508192	-0.2806870184827545	-0.004037808839634022	-0.01594979896723617	0.2025622129615241	-11.38928383724387	-43.41818672208969	-13.41760421451652	1.291348152377169	-1.105237571589992	-620.330301095998	52.24906403615216	0.01082227514141823	0.4804214291841983	-0.6236110381327712	-0.6100336118331686	-0.06016493221890715	-0.3184208109435381	1.57141444352597	-1.01153641017698	-1.011536410176982	0.550464269890097	-0.05576312830365088	-0.5349745464326772	-0.1162108967298804	1.95356026423148e-09	-1.578729832693789e-07	-2.435414534373623e-06	-1.57146085352017e-06	3.58291491575844e-07	-2.649720200905491e-08	-1.348091511880455e-06
1.53	-0.0868166771342191	0.04872768317247345	0.8339256161545389	0.7479902871112382	-0.2427560427581126	-0.09272117646754473	-0.599114944675422	0.8719597948839175	0.8719597948838836	0.03762285157511581	0.1744650381450388	0.2876887340654868	0.1050153910464311	0.5043999290600636	0.2300727217548127	0.4733735608285722	-2.033844369345056	0.00715711111816605	-0.3577536995478651	0.8476728523972256	-1.966581836859806	-1.966581836860135	0.3160785248703925	0.0002756580817719547	-0.5392754286950271	-0.175380046868071	-0.1449429153496095	0.007680398652229536	0.02769744227536436	-0.2774102725956984	-0.001664902977974489	-0.01637006050555875	0.1957579672016465	-12.417896217361	-42.38216252675508	-13.27099533632356	1.099232761491977	-1.28741054361936	-615.8052465131371	52.33346227733078	-0.02496261032864965	0.4616373366574026	-0.6813120502364588	-0.4558538139566266	-0.05604333803865737	-0.4496742191148962	1.484728043207715	-0.8498743047453119	-0.8498743047785065	0.4259946902032933	0.03367181124289247	-0.4789595018052086	-0.0847345614862151	-2.140956190685289e-09	-1.650943229497882e-07	-2.440414436054219e-06	-1.653756401537831e-06	3.617758150876417e-07	-3.842069203217601e-08	-1.284101505645073e-06
1.54	-0.08177482505540766	0.05105114553346083	0.838624282400401	0.7276321224318928	-0.2426873284879346	-0.09631941553137507	-0.5905651181235156	0.8522546031333559	0.8522546031333471	0.04080575787974538	0.1744683512110096	0.2822730132606947	0.1032576161634368	0.5038958506793414	0.2345861547939117	0.46626149084476	-2.037506307879003	0.006590003097838632	-0.3619140987124349	0.8621633006060397	-1.974165785387328	-1.974165785387878	0.3204431298544738	0.0004083611169392136	-0.5437736638548306	-0.176130701321818	-0.137413936552566	0.00584153226072965	0.02716343054588179	-0.2741335267086373	0.0007080028836756897	-0.01679032204393669	0.188953721441753	-13.44158916337838	-41.34938923276017	-13.12719378228715	0.9101231316373266	-1.456691672086508	-611.3114407603413	52.40058913006286	-0.07887417981970925	0.4406884765697695	-0.7415197233633622	-0.2715058681835365	-0.05846957046102842	-0.3427012111014179	1.416425589687933	-0.6626560410481496	-0.662656041048159	0.4760065458319803	-0.03317879520915664	-0.4202361447510582	-0.06782394986724619	2.933802847396683e-08	-9.963160207312623e-08	-2.069109536442873e-06	-1.05439187602737e-06	2.791089975247194e-07	4.539057152831092e-08	-1.135354104710708e-06
1.55	-0.07674023464497015	0.0534186842542396	0.8432489876935499	0.7072456321876504	-0.2426249133370517	-0.09995578479525477	-0.5818745137842944	0.8324823248039739	0.832482324803934	0.0440346996297162	0.1744717375307417	0.2768148838774857	0.1014923250633878	0.5029386052482535	0.2388808516270088	0.4585896946234068	-2.03949649421997	0.005903212836414785	-0.3654010421957057	0.875812928466869	-1.979999192938035	-1.979999192938555	0.3252526517406906	0.0002915122400698571	-0.5477571217481135	-0.1768752997135833	-0.1298008728512293	0.0039417866560792	0.02657492115288975	-0.2712045742782406	0.003288915885401545	-0.01726365068780696	0.1820977084629696	-14.45665707097834	-40.27819209199665	-13.00719007283693	0.733349102639565	-1.621272338868234	-607.1631992771661	52.48972422190914	-0.116684842791321	0.4177488484789897	-0.7934210765135434	-0.1184732983181734	-0.07215509767729235	-0.3576794065111797	1.317535568575451	-0.5001083919276911	-0.5001083919232547	0.4694481089000858	0.002643801582244347	-0.3731105736369393	-0.06994377573169586	1.018038731242069e-07	4.957579727146111e-08	-1.264236061429967e-06	3.303636037654508e-07	9.718108263658172e-08	2.395049207394706e-07	-8.889514446666532e-07
1.56	-0.07171772371245479	0.05582794765570906	0.8477942927234868	0.6868481004237408	-0.2425690403575226	-0.1036282211918835	-0.5730517523296069	0.8126604273431112	0.8126604273430478	0.04730894121831241	0.1744746717088113	0.2713197779229407	0.0997211547810409	0.5014799550956581	0.2429310909320518	0.4503814382023686	-2.03971461181153	0.005281568827230707	-0.3691275252618296	0.888594723699508	-1.984089611682574	-1.984089611683064	0.329503097582254	0.0003179327835229189	-0.5511689781221977	-0.1773065377813707	-0.1221878091499097	0.0020420410514051	0.02598641175998233	-0.2682756218478443	0.005869828887120508	-0.01773697933171589	0.1752416954841745	-15.46046100018041	-39.20860337807002	-12.88774955078478	0.5569861730755215	-1.792230957892641	-603.029055766908	52.62972526743021	-0.1791551241211929	0.3917969709589649	-0.8488117633003589	0.08290788169800227	-0.04544032001308305	-0.390609127672031	1.242859064049889	-0.314058279814701	-0.3140582798146965	0.3641913369013008	-0.004524911144682771	-0.3059158409112512	-0.005151885071654459	1.643577740472131e-07	1.614041523300272e-07	-7.9804499601222e-07	1.368464979840459e-06	-2.342547074223905e-08	3.944890576915381e-07	-8.160352249406576e-07
1.57	-0.06671217354516328	0.05827646351215021	0.8522549427252655	0.6664569666366916	-0.2425196429979849	-0.1073371620399719	-0.5641056588614112	0.7928063741754341	0.7928063741753603	0.0506253949067173	0.1744780366516485	0.2657932549676144	0.09794626152271227	0.4995492953293192	0.2467278009788371	0.4416676245192093	-2.038218287455589	0.004598302308494422	-0.3726368056980596	0.9004745429500564	-1.986418914663808	-1.986418914664071	0.3337525881024679	0.0003464525617910975	-0.5540361810416435	-0.1776361681729616	-0.114702066445197	1.045241515129937e-05	0.02544777940105032	-0.265558463258318	0.008483981364603255	-0.01831182744377385	0.1685282982734455	-16.45096319699731	-38.16398392206821	-12.82488456818861	0.3989117317986515	-1.942989362218014	-599.3218305487984	52.73596094970783	-0.2121192038051925	0.3669475774419223	-0.8946944895746238	0.2271038599630926	-0.07942179127869473	-0.3271521336833468	1.138129307104409	-0.1470989097616558	-0.1470989097274691	0.4500280597005815	0.005673811464057715	-0.2621871902421252	-0.04131738007019627	2.14521745311177e-07	2.265087020310673e-07	-7.552069425884181e-07	1.973248726268205e-06	-6.738032223441446e-08	5.00560429319741e-07	-9.599770556122346e-07
1.58	-0.06172834953572227	0.0607616143802398	0.8566260489264623	0.6460896179226818	-0.2424770086983311	-0.1110804086188399	-0.5550452500104014	0.7729380814574476	0.7729380814573676	0.05398328353034293	0.1744815134700971	0.260241047048538	0.09616918220769399	0.4971347235263939	0.250258093261739	0.432472678086018	-2.034957597202809	0.003928956850772734	-0.3759886714176849	0.911457800262497	-1.986937521744397	-1.986937521744431	0.3377900846274505	0.0003403079061190715	-0.5563059708723247	-0.1777437491192487	-0.1072163237404946	-0.002021136221118006	0.02490914704213059	-0.2628413046687932	0.01109813384208137	-0.0188866755558568	0.1618149010627098	-17.4266584939694	-37.11928509423124	-12.75800760970514	0.2356291964984165	-2.112395021163977	-595.6112111539231	52.93375135239293	-0.2759375314385076	0.3385134181822996	-0.9450383133067555	0.4357810610657422	-0.04265610781016404	-0.3591261843510773	1.063546676428323	0.04808090031439113	0.04808090031439253	0.3217925378549962	-0.0114577979327333	-0.1864332231583205	0.03925800398913655	2.485980805671352e-07	2.652406243363281e-07	-8.11738709157034e-07	2.324262933818157e-06	-8.49069662532087e-08	5.737272156113472e-07	-1.108959336209821e-06
1.59	-0.05677105372764996	0.06328069110416423	0.8609029123316475	0.6257636009265637	-0.2424411034563367	-0.1148566385991533	-0.5458796362199133	0.753073597689521	0.7530735976894468	0.05738051207717692	0.1744850379822508	0.2546690831649788	0.0943919727688828	0.4942407178682892	0.2535080193091761	0.4228286318009921	-2.029944500166479	0.003250985598592506	-0.379222710618539	0.9215079999163932	-1.985649597128462	-1.985649597128478	0.3416259032059252	0.0003556144367618605	-0.5579847307999847	-0.1776660612664581	-0.09977438560169173	-0.004251996102597191	0.02443041140214776	-0.2604789858379285	0.01386965533363949	-0.01961357369505167	0.1551817494618372	-18.38662078459874	-36.06639202340534	-12.76576795287906	0.09571198383304662	-2.263041411770998	-592.3719475991963	53.0902853369726	-0.3086710685506356	0.310836238635909	-0.9846696128178838	0.5792994329853086	-0.08027593081675932	-0.2999623087318908	0.9522129220371226	0.2155398215690649	0.215539821571739	0.4099331649941689	0.007096074767039699	-0.1432545235447064	-0.003064238430660462	2.608411955265155e-07	2.681811237473189e-07	-1.003129517143924e-06	2.330875624319694e-06	-6.656675727241615e-08	6.022377789461459e-07	-1.264782227421276e-06
